<svg width="30" height="31" viewBox="0 0 30 31" fill="none" xmlns="http://www.w3.org/2000/svg">
<path fill-rule="evenodd" clip-rule="evenodd" d="M30 15.2378C30 23.6535 23.2843 30.4757 15 30.4757C6.71573 30.4757 0 23.6535 0 15.2378C0 6.82222 6.71573 0 15 0C23.2843 0 30 6.82222 30 15.2378ZM9.375 11.4284C9.375 10.3764 10.2145 9.52365 11.25 9.52365C12.2855 9.52365 13.125 10.3764 13.125 11.4284V19.0473C13.125 20.0993 12.2855 20.952 11.25 20.952C10.2145 20.952 9.375 20.0993 9.375 19.0473V11.4284ZM18.75 9.52365C17.7145 9.52365 16.875 10.3764 16.875 11.4284V19.0473C16.875 20.0993 17.7145 20.952 18.75 20.952C19.7855 20.952 20.625 20.0993 20.625 19.0473V11.4284C20.625 10.3764 19.7855 9.52365 18.75 9.52365Z" fill="#214852"/>
</svg>
