<svg width="30" height="30" viewBox="0 0 30 30" fill="none" xmlns="http://www.w3.org/2000/svg">
<path d="M15 0C6.72909 0 0 6.72909 0 15C0 23.2709 6.72909 30 15 30C23.2709 30 30 23.2709 30 15C30 6.72909 23.2709 0 15 0ZM20.3921 15.6707L12.1385 20.6567C12.0202 20.7276 11.8851 20.7657 11.7472 20.7672C11.6093 20.7687 11.4735 20.7334 11.3537 20.6651C11.2339 20.5968 11.1345 20.4978 11.0656 20.3783C10.9966 20.2589 10.9607 20.1232 10.9615 19.9853V10.0147C10.9607 9.87675 10.9966 9.74112 11.0656 9.62166C11.1345 9.5022 11.2339 9.40323 11.3537 9.33489C11.4735 9.26656 11.6093 9.23132 11.7472 9.23279C11.8851 9.23426 12.0202 9.27239 12.1385 9.34327L20.3921 14.3293C20.5071 14.3994 20.6022 14.4979 20.6682 14.6154C20.7342 14.7328 20.7688 14.8653 20.7688 15C20.7688 15.1347 20.7342 15.2672 20.6682 15.3846C20.6022 15.5021 20.5071 15.6006 20.3921 15.6707V15.6707Z" fill="#214852"/>
</svg>
