<svg width="40" height="40" viewBox="0 0 40 40" fill="none" xmlns="http://www.w3.org/2000/svg">
<path d="M20.044 40H19.956C8.95238 40 0 31.0476 0 20.044V19.956C0 8.95238 8.95238 0 19.956 0H20.044C31.0476 0 40 8.95238 40 19.956V20.044C40 31.0476 31.0476 40 20.044 40ZM19.956 1.35396C9.69841 1.35396 1.35396 9.69841 1.35396 19.956V20.044C1.35396 30.3016 9.69841 38.646 19.956 38.646H20.044C30.3016 38.646 38.646 30.3016 38.646 20.044V19.956C38.646 9.69841 30.3016 1.35396 20.044 1.35396H19.956Z" fill="url(#paint0_linear_92_383)"/>
<path d="M25.9797 8.53931H14.0215C10.7179 8.53931 8.03027 11.2269 8.03027 14.5306V25.4706C8.03027 28.7742 10.7179 31.4618 14.0215 31.4618H25.9797C29.2834 31.4618 31.971 28.7742 31.971 25.4706V14.5306C31.971 11.2269 29.2834 8.53931 25.9797 8.53931ZM10.1438 14.5306C10.1438 12.3927 11.8836 10.6528 14.0215 10.6528H25.9797C28.1176 10.6528 29.8574 12.3927 29.8574 14.5306V25.4706C29.8574 27.6085 28.1176 29.3483 25.9797 29.3483H14.0215C11.8836 29.3483 10.1438 27.6085 10.1438 25.4706V14.5306Z" fill="url(#paint1_linear_92_383)"/>
<path d="M20.0006 25.5718C23.0728 25.5718 25.5735 23.0724 25.5735 19.9989C25.5735 16.9254 23.0741 14.426 20.0006 14.426C16.9271 14.426 14.4277 16.9254 14.4277 19.9989C14.4277 23.0724 16.9271 25.5718 20.0006 25.5718ZM20.0006 16.5409C21.9084 16.5409 23.46 18.0926 23.46 20.0003C23.46 21.908 21.9084 23.4597 20.0006 23.4597C18.0929 23.4597 16.5413 21.908 16.5413 20.0003C16.5413 18.0926 18.0929 16.5409 20.0006 16.5409Z" fill="url(#paint2_linear_92_383)"/>
<path d="M26.0897 15.3266C26.9169 15.3266 27.5912 14.6536 27.5912 13.825C27.5912 12.9964 26.9183 12.3235 26.0897 12.3235C25.261 12.3235 24.5881 12.9964 24.5881 13.825C24.5881 14.6536 25.261 15.3266 26.0897 15.3266Z" fill="url(#paint3_linear_92_383)"/>
<defs>
<linearGradient id="paint0_linear_92_383" x1="5.85181" y1="34.1482" x2="34.1482" y2="5.85181" gradientUnits="userSpaceOnUse">
<stop stop-color="#FAAD4F"/>
<stop offset="0.35" stop-color="#DD2A7B"/>
<stop offset="0.62" stop-color="#9537B0"/>
<stop offset="1" stop-color="#515BD4"/>
</linearGradient>
<linearGradient id="paint1_linear_92_383" x1="10.0409" y1="29.9589" x2="29.959" y2="10.0422" gradientUnits="userSpaceOnUse">
<stop stop-color="#FAAD4F"/>
<stop offset="0.35" stop-color="#DD2A7B"/>
<stop offset="0.62" stop-color="#9537B0"/>
<stop offset="1" stop-color="#515BD4"/>
</linearGradient>
<linearGradient id="paint2_linear_92_383" x1="16.062" y1="23.9389" x2="23.9379" y2="16.0616" gradientUnits="userSpaceOnUse">
<stop stop-color="#FAAD4F"/>
<stop offset="0.35" stop-color="#DD2A7B"/>
<stop offset="0.62" stop-color="#9537B0"/>
<stop offset="1" stop-color="#515BD4"/>
</linearGradient>
<linearGradient id="paint3_linear_92_383" x1="25.0282" y1="14.8865" x2="27.1512" y2="12.7635" gradientUnits="userSpaceOnUse">
<stop stop-color="#FAAD4F"/>
<stop offset="0.35" stop-color="#DD2A7B"/>
<stop offset="0.62" stop-color="#9537B0"/>
<stop offset="1" stop-color="#515BD4"/>
</linearGradient>
</defs>
</svg>
