<svg width="40" height="40" viewBox="0 0 40 40" fill="none" xmlns="http://www.w3.org/2000/svg">
<path d="M20.044 40H19.956C8.95238 40 0 31.0476 0 20.044V19.956C0 8.95238 8.95238 0 19.956 0H20.044C31.0476 0 40 8.95238 40 19.956V20.044C40 31.0476 31.0476 40 20.044 40ZM19.956 1.35396C9.69841 1.35396 1.35396 9.69841 1.35396 19.956V20.044C1.35396 30.3016 9.69841 38.646 19.956 38.646H20.044C30.3016 38.646 38.646 30.3016 38.646 20.044V19.956C38.646 9.69841 30.3016 1.35396 20.044 1.35396H19.956Z" fill="#383D38"/>
<path d="M8.51499 9.42651L17.4267 21.3414L8.45947 31.0289H10.4782L18.3298 22.5477L24.6731 31.0289H31.5418L22.129 18.4439L30.4762 9.42651H28.4574L21.2273 17.2375L15.385 9.42651H8.51633H8.51499ZM11.4829 10.9132H14.6376L28.5712 29.5423H25.4165L11.4829 10.9132Z" fill="#383D38"/>
</svg>
