<svg width="38" height="38" viewBox="0 0 38 38" fill="none" xmlns="http://www.w3.org/2000/svg">
<path d="M18.9996 0C8.50651 0 0 8.50651 0 18.9996C0 27.9097 6.1346 35.3864 14.4101 37.4399V24.8059H10.4923V18.9996H14.4101V16.4978C14.4101 10.031 17.3368 7.03366 23.6857 7.03366C24.8895 7.03366 26.9665 7.27002 27.8162 7.50561V12.7685C27.3678 12.7214 26.5888 12.6978 25.6214 12.6978C22.5062 12.6978 21.3024 13.8781 21.3024 16.9461V18.9996H27.5084L26.4422 24.8059H21.3024V37.8602C30.7102 36.724 38 28.7137 38 18.9996C37.9992 8.50651 29.4927 0 18.9996 0Z" fill="white"/>
</svg>
