<svg width="35" height="35" viewBox="0 0 35 35" fill="none" xmlns="http://www.w3.org/2000/svg">
<path d="M26.2411 0H8.75891C3.92914 0 0 4.10367 0 9.14797V25.852C0 30.8963 3.92914 35 8.75891 35H26.2411C31.0709 35 35 30.8963 35 25.852V9.14797C35 4.10367 31.0709 0 26.2411 0ZM3.08987 9.14797C3.08987 5.88365 5.63341 3.22709 8.75891 3.22709H26.2411C29.3666 3.22709 31.9101 5.88365 31.9101 9.14797V25.852C31.9101 29.1164 29.3666 31.7729 26.2411 31.7729H8.75891C5.63341 31.7729 3.08987 29.1164 3.08987 25.852V9.14797Z" fill="white"/>
<path d="M17.5001 26.0071C21.9913 26.0071 25.6473 22.1908 25.6473 17.4979C25.6473 12.8051 21.9933 8.98877 17.5001 8.98877C13.0068 8.98877 9.35278 12.8051 9.35278 17.4979C9.35278 22.1908 13.0068 26.0071 17.5001 26.0071ZM17.5001 12.2179C20.2891 12.2179 22.5575 14.5871 22.5575 17.5C22.5575 20.4129 20.2891 22.782 17.5001 22.782C14.7111 22.782 12.4427 20.4129 12.4427 17.5C12.4427 14.5871 14.7111 12.2179 17.5001 12.2179Z" fill="white"/>
<path d="M26.4015 10.3637C27.6109 10.3637 28.5966 9.33623 28.5966 8.07102C28.5966 6.80581 27.6129 5.77832 26.4015 5.77832C25.1901 5.77832 24.2063 6.80581 24.2063 8.07102C24.2063 9.33623 25.1901 10.3637 26.4015 10.3637Z" fill="white"/>
</svg>
