<svg width="25" height="25" viewBox="0 0 25 25" fill="none" xmlns="http://www.w3.org/2000/svg">
<path fill-rule="evenodd" clip-rule="evenodd" d="M2.8014 8.27015C3.09442 7.97712 3.49185 7.8125 3.90625 7.8125H21.0938C21.5082 7.8125 21.9056 7.97712 22.1986 8.27015C22.4916 8.56317 22.6562 8.9606 22.6562 9.375V19.9829C22.6562 21.9136 21.0256 23.4375 19.1406 23.4375H5.85938C3.95134 23.4375 2.34375 21.8299 2.34375 19.9219V9.375C2.34375 8.9606 2.50837 8.56317 2.8014 8.27015ZM21.0938 9.375L3.90625 9.375L3.90625 19.9219C3.90625 20.967 4.81429 21.875 5.85938 21.875H19.1406C20.2088 21.875 21.0938 21.0053 21.0938 19.9829V9.375Z" fill="#073641"/>
<path fill-rule="evenodd" clip-rule="evenodd" d="M12.5 3.125C11.464 3.125 10.4704 3.53655 9.73786 4.26911C9.0053 5.00168 8.59375 5.99525 8.59375 7.03125V8.59375C8.59375 9.02522 8.24397 9.375 7.8125 9.375C7.38103 9.375 7.03125 9.02522 7.03125 8.59375V7.03125C7.03125 5.58085 7.60742 4.18985 8.63301 3.16426C9.6586 2.13867 11.0496 1.5625 12.5 1.5625C13.9504 1.5625 15.3414 2.13867 16.367 3.16426C17.3926 4.18985 17.9688 5.58085 17.9688 7.03125V8.59375C17.9688 9.02522 17.619 9.375 17.1875 9.375C16.756 9.375 16.4062 9.02522 16.4062 8.59375V7.03125C16.4062 5.99525 15.9947 5.00168 15.2621 4.26911C14.5296 3.53655 13.536 3.125 12.5 3.125Z" fill="#073641"/>
<path fill-rule="evenodd" clip-rule="evenodd" d="M7.8125 10.1562C8.24397 10.1562 8.59375 10.506 8.59375 10.9375V11.7188C8.59375 12.7548 9.0053 13.7483 9.73786 14.4809C10.4704 15.2135 11.464 15.625 12.5 15.625C13.536 15.625 14.5296 15.2134 15.2621 14.4809C15.9947 13.7483 16.4062 12.7548 16.4062 11.7188V10.9375C16.4062 10.506 16.756 10.1562 17.1875 10.1562C17.619 10.1562 17.9688 10.506 17.9688 10.9375V11.7188C17.9688 13.1692 17.3926 14.5602 16.367 15.5857C15.3414 16.6113 13.9504 17.1875 12.5 17.1875C11.0496 17.1875 9.6586 16.6113 8.63301 15.5857C7.60742 14.5602 7.03125 13.1692 7.03125 11.7188V10.9375C7.03125 10.506 7.38103 10.1562 7.8125 10.1562Z" fill="#073641"/>
</svg>
