<svg width="25" height="19" viewBox="0 0 25 19" fill="none" xmlns="http://www.w3.org/2000/svg">
<g clip-path="url(#clip0_74_1303)">
<path fill-rule="evenodd" clip-rule="evenodd" d="M-0.000488281 0.000946045H25.0044V19.0009H-0.000488281V0.000946045Z" fill="white"/>
<path fill-rule="evenodd" clip-rule="evenodd" d="M2.71924 5.77356L5.30249 1.82152L5.95541 2.2607L3.37215 6.21274L2.71924 5.77356ZM3.69861 6.43233L6.28186 2.48029L6.93478 2.91948L4.35153 6.87152L3.69861 6.43233ZM4.67798 7.09111L7.26124 3.13907L7.91415 3.57825L5.3309 7.53029L4.67798 7.09111Z" fill="#262626"/>
<path fill-rule="evenodd" clip-rule="evenodd" d="M17.0437 15.3985L19.6269 11.4465L20.2799 11.8857L17.6966 15.8377L17.0437 15.3985ZM18.0231 16.0573L20.6063 12.1053L21.2592 12.5445L18.676 16.4965L18.0231 16.0573ZM19.0025 16.7161L21.5857 12.7641L22.2386 13.2033L19.6554 17.1553L19.0025 16.7161Z" fill="#262626"/>
<path d="M17.9055 13.3705L18.1204 13.0421L19.2602 13.8082L19.0454 14.1367L17.9055 13.3705ZM20.0224 14.7934L20.2372 14.465L21.2142 15.1217L20.9994 15.4501L20.0224 14.7934Z" fill="white"/>
<path d="M19.2602 13.8082L19.0454 14.1367L20.0224 14.7934L20.2372 14.465L19.2602 13.8082Z" fill="white"/>
<path fill-rule="evenodd" clip-rule="evenodd" d="M8.58936 6.85843C10.014 4.6917 12.9369 4.10767 15.0847 5.56058C17.2325 7.01348 17.8242 9.975 16.3995 12.1417L8.58936 6.85843Z" fill="#CD2E3A"/>
<path fill-rule="evenodd" clip-rule="evenodd" d="M8.57988 6.86559C7.15464 9.03347 7.74663 11.9966 9.89542 13.4503C12.0442 14.9041 14.9684 14.3198 16.3937 12.1519C17.1063 11.0679 16.8103 9.58637 15.7359 8.85951C14.6615 8.13264 13.1994 8.4248 12.4868 9.50874L8.57988 6.86559Z" fill="#0047A0"/>
<path d="M12.4933 9.51052C13.2091 8.42166 12.9145 6.94704 11.8353 6.21687C10.756 5.4867 9.3008 5.77747 8.58496 6.86633C7.86912 7.95519 8.16373 9.42981 9.24298 10.16C10.3222 10.8902 11.7775 10.5994 12.4933 9.51052Z" fill="#CD2E3A"/>
<path fill-rule="evenodd" clip-rule="evenodd" d="M5.34375 17.1939L2.75 13.2488L3.40175 12.8079L5.9955 16.753L5.34375 17.1939ZM6.32138 16.5325L3.72763 12.5874L4.37938 12.1465L6.97313 16.0916L6.32138 16.5325ZM7.29901 15.8711L4.70526 11.9261L5.35701 11.4852L7.95076 15.4302L7.29901 15.8711Z" fill="#262626"/>
<path fill-rule="evenodd" clip-rule="evenodd" d="M19.6431 7.53033L17.0493 3.58526L17.7011 3.14435L20.2948 7.08942L19.6431 7.53033ZM20.6207 6.86896L18.0269 2.92389L18.6787 2.48298L21.2724 6.42805L20.6207 6.86896ZM21.5983 6.2076L19.0046 2.26252L19.6563 1.82161L22.2501 5.76668L21.5983 6.2076Z" fill="#262626"/>
<path d="M4.96997 14.8336L4.75433 14.5059L5.72934 13.8469L5.94498 14.1746L4.96997 14.8336ZM18.1326 5.93742L17.917 5.60973L19.0545 4.84093L19.2701 5.16861L18.1326 5.93742ZM20.2452 4.50963L20.0295 4.18195L21.0045 3.52298L21.2202 3.85066L20.2452 4.50963Z" fill="white"/>
</g>
<defs>
<clipPath id="clip0_74_1303">
<rect width="25" height="19" fill="white"/>
</clipPath>
</defs>
</svg>
