<svg width="25" height="25" viewBox="0 0 25 25" fill="none" xmlns="http://www.w3.org/2000/svg">
<path fill-rule="evenodd" clip-rule="evenodd" d="M9.375 3.125C5.92322 3.125 3.125 5.92322 3.125 9.375C3.125 12.8268 5.92322 15.625 9.375 15.625C12.8268 15.625 15.625 12.8268 15.625 9.375C15.625 5.92322 12.8268 3.125 9.375 3.125ZM0 9.375C0 4.19733 4.19733 0 9.375 0C14.5527 0 18.75 4.19733 18.75 9.375C18.75 11.3997 18.1081 13.2746 17.0168 14.8071L24.5424 22.3326C25.1525 22.9428 25.1525 23.9322 24.5424 24.5424C23.9322 25.1525 22.9428 25.1525 22.3326 24.5424L14.8071 17.0168C13.2746 18.1081 11.3997 18.75 9.375 18.75C4.19733 18.75 0 14.5527 0 9.375Z" fill="#073641"/>
</svg>
