<?xml version="1.0" encoding="UTF-8"?>
<svg id="Layer_1" data-name="Layer 1" xmlns="http://www.w3.org/2000/svg" viewBox="0 0 13.94 15.77">
  <defs>
    <style>
      .cls-1 {
        fill: #0dbfdb;
      }

      .cls-2 {
        fill: #7fd1e3;
      }
    </style>
  </defs>
  <g>
    <path class="cls-2" d="M10.1,1.6s-.29-.61-.24-1.6c0,0,1.08.87,1,2.26l-.76-.65Z"/>
    <path class="cls-1" d="M2.44,7.47c.59.05,1.85.29,2.8,1.41.63.74.82,1.5.88,1.93-2.56-.99-3.44-2.31-3.69-3.34h0ZM2.16,7.22s-.01,0-.01,0c.18,1.24,1.11,2.84,4.24,3.94,0,0,.04-1.25-.96-2.43-1.22-1.43-2.93-1.51-3.26-1.51h0Z"/>
    <path class="cls-1" d="M10.86,2.26s-.89-1.43-3.09-.85c0,0,.59.52,2.04,1.02,1.45.5,1.98,2.37,1.15,3.49-.27.4-1.17,1.31-2.56,1.04-1.85-2.05-4.98-3-5.97-1.61-.1.14-.42.9-.28,1.87.29,0,2.03.05,3.27,1.51,1.01,1.19.96,2.43.96,2.43,0,0,.73.99,1.62,1.17,0,0-.25-.62-.23-1.16,0,0,3.48-.17,4.49-3.4,1.12-3.58-1.41-5.52-1.41-5.52Z"/>
  </g>
  <path class="cls-2" d="M9.43,15.08c-3.36.89-7.51-1.38-7.8-5.03-.04-.31-.13-1,.38-.88.09.03.15.1.17.18.09.42.02.86.12,1.28.44,2.66,3.2,4.37,5.76,4.46.44,0,.89-.06,1.34-.12.06-.01.09.09.02.1h0Z"/>
  <path class="cls-1" d="M4.01,13.19c-.51-.44-.9-1.03-1.11-1.67-.07-.3-.33-.92.16-.97.15,0,.28.12.29.27-.02.82.24,1.64.72,2.29.04.05-.02.12-.07.08h0Z"/>
  <g>
    <path class="cls-1" d="M13.69,11.55c-.22.44-.41.9-.69,1.33-.27.43-.71.77-1.14,1.02-2.14,1.31-5.48,1.66-7.14-.59-.31-.43-1.19-1.81-.32-2.03.24-.05.47.1.54.33.14.42.26.84.5,1.21,1.47,2.36,4.87,1.79,6.87.42.59-.44.87-1.12,1.25-1.75.04-.08.17-.01.13.07h0Z"/>
    <path class="cls-1" d="M13.27,12.42c-.92,1.09-2.29,1.79-3.72,1.83-1.27.09-2.62-.32-3.42-1.37-.17-.21-.54-.62-.17-.81.33-.12.42.3.58.49,1.03,1.62,3.35,1.68,4.95.94.61-.29,1.15-.72,1.59-1.24.1-.12.28.03.18.15h0Z"/>
  </g>
  <path class="cls-2" d="M13.92,10.83c-.38,1.68-1.53,3.14-3.04,3.97-3.93,2.3-9.52.39-10.68-4.18-.22-.87-.27-1.79-.07-2.66.12-.54.92-.43.9.11-.07.82-.13,1.55.06,2.34.68,3.19,4.13,5.15,7.28,4.71,2.43-.3,4.63-2.01,5.5-4.31.01-.04.08-.02.06.02h0Z"/>
  <path class="cls-1" d="M13.94,9.06c-.35,1.81-1.66,3.51-3.45,4.04-.58.16-1.2.3-1.78.1-.02,0-.01-.04,0-.04,1.1-.13,2.23-.53,3.03-1.31.77-.75,1.24-1.82,1.43-2.87.05-.52.83-.44.77.08h0Z"/>
  <circle class="cls-2" cx="9.13" cy="12.14" r=".4"/>
</svg>